<svg xmlns="http://www.w3.org/2000/svg" viewBox="0 0 900 600" width="900" height="600">
  <defs>
    <linearGradient id="bg" x1="0%" y1="0%" x2="100%" y2="100%">
      <stop offset="0%" stop-color="#060d1f"/><stop offset="100%" stop-color="#0a1830"/>
    </linearGradient>
    <linearGradient id="desk" x1="0%" y1="0%" x2="0%" y2="100%">
      <stop offset="0%" stop-color="#1a2540"/><stop offset="100%" stop-color="#111c30"/>
    </linearGradient>
    <linearGradient id="scrn" x1="0%" y1="0%" x2="100%" y2="100%">
      <stop offset="0%" stop-color="#0a1628"/><stop offset="100%" stop-color="#0d2040"/>
    </linearGradient>
    <linearGradient id="skin" x1="0%" y1="0%" x2="0%" y2="100%">
      <stop offset="0%" stop-color="#8B5E3C"/><stop offset="100%" stop-color="#6B4423"/>
    </linearGradient>
    <radialGradient id="glow" cx="50%" cy="50%" r="60%">
      <stop offset="0%" stop-color="#007dff" stop-opacity="0.15"/><stop offset="100%" stop-color="#007dff" stop-opacity="0"/>
    </radialGradient>
  </defs>
  <rect width="900" height="600" fill="url(#bg)"/>
  <g opacity="0.06" stroke="#007dff" stroke-width="0.5">
    <line x1="0" y1="100" x2="900" y2="100"/><line x1="0" y1="200" x2="900" y2="200"/>
    <line x1="0" y1="300" x2="900" y2="300"/><line x1="0" y1="400" x2="900" y2="400"/>
    <line x1="0" y1="500" x2="900" y2="500"/><line x1="100" y1="0" x2="100" y2="600"/>
    <line x1="200" y1="0" x2="200" y2="600"/><line x1="300" y1="0" x2="300" y2="600"/>
    <line x1="400" y1="0" x2="400" y2="600"/><line x1="500" y1="0" x2="500" y2="600"/>
    <line x1="600" y1="0" x2="600" y2="600"/><line x1="700" y1="0" x2="700" y2="600"/>
    <line x1="800" y1="0" x2="800" y2="600"/>
  </g>
  <ellipse cx="480" cy="280" rx="280" ry="200" fill="url(#glow)"/>
  <rect x="100" y="420" width="700" height="24" rx="4" fill="url(#desk)"/>
  <rect x="100" y="440" width="700" height="120" fill="#0e1828" opacity="0.8"/>
  <rect x="260" y="400" width="380" height="22" rx="4" fill="#1a2540"/>
  <rect x="270" y="200" width="360" height="205" rx="10" fill="#141f35"/>
  <rect x="282" y="212" width="336" height="183" rx="6" fill="url(#scrn)"/>
  <rect x="294" y="224" width="180" height="8" rx="2" fill="#007dff" opacity="0.7"/>
  <rect x="294" y="238" width="140" height="7" rx="2" fill="#00d4ff" opacity="0.5"/>
  <rect x="294" y="252" width="200" height="7" rx="2" fill="#4ade80" opacity="0.5"/>
  <rect x="294" y="266" width="160" height="7" rx="2" fill="#007dff" opacity="0.4"/>
  <rect x="294" y="280" width="220" height="7" rx="2" fill="#e2e8f0" opacity="0.25"/>
  <rect x="294" y="294" width="130" height="7" rx="2" fill="#4ade80" opacity="0.55"/>
  <rect x="294" y="308" width="190" height="7" rx="2" fill="#00d4ff" opacity="0.4"/>
  <rect x="294" y="322" width="150" height="7" rx="2" fill="#f59e0b" opacity="0.5"/>
  <rect x="294" y="336" width="210" height="7" rx="2" fill="#e2e8f0" opacity="0.2"/>
  <rect x="294" y="350" width="170" height="7" rx="2" fill="#007dff" opacity="0.6"/>
  <rect x="294" y="364" width="120" height="7" rx="2" fill="#4ade80" opacity="0.45"/>
  <rect x="294" y="378" width="8" height="10" rx="1" fill="#007dff" opacity="0.9"/>
  <rect x="504" y="218" width="104" height="171" rx="4" fill="#0a1020" opacity="0.7"/>
  <rect x="512" y="228" width="88" height="12" rx="3" fill="#1e3a5f" opacity="0.9"/>
  <polyline points="512,340 532,320 552,330 572,310 592,315 600,305" fill="none" stroke="#007dff" stroke-width="2" opacity="0.8"/>
  <rect x="270" y="400" width="360" height="4" rx="2" fill="#0d1828"/>
  <rect x="360" y="350" width="180" height="80" rx="10" fill="#0f1e35" opacity="0.7"/>
  <rect x="390" y="310" width="120" height="100" rx="16" fill="#1a3a6a"/>
  <ellipse cx="450" cy="280" rx="48" ry="52" fill="url(#skin)"/>
  <ellipse cx="450" cy="246" rx="48" ry="28" fill="#1a0a02"/>
  <ellipse cx="410" cy="268" rx="18" ry="26" fill="#1a0a02"/>
  <ellipse cx="490" cy="268" rx="18" ry="26" fill="#1a0a02"/>
  <ellipse cx="433" cy="278" rx="6" ry="7" fill="#fff" opacity="0.95"/>
  <ellipse cx="467" cy="278" rx="6" ry="7" fill="#fff" opacity="0.95"/>
  <circle cx="435" cy="279" r="4" fill="#2a1a08"/>
  <circle cx="469" cy="279" r="4" fill="#2a1a08"/>
  <circle cx="436" cy="277" r="1.5" fill="#fff" opacity="0.6"/>
  <circle cx="470" cy="277" r="1.5" fill="#fff" opacity="0.6"/>
  <path d="M438 305 Q450 312 462 305" stroke="#5a2a08" stroke-width="2" fill="none" opacity="0.7"/>
  <ellipse cx="402" cy="282" rx="7" ry="10" fill="#7a4e28"/>
  <ellipse cx="498" cy="282" rx="7" ry="10" fill="#7a4e28"/>
  <path d="M400 370 Q370 400 320 420" stroke="#7a4e28" stroke-width="18" stroke-linecap="round" fill="none"/>
  <path d="M500 370 Q530 400 580 420" stroke="#7a4e28" stroke-width="18" stroke-linecap="round" fill="none"/>
  <ellipse cx="315" cy="422" rx="22" ry="10" fill="#7a4e28"/>
  <ellipse cx="585" cy="422" rx="22" ry="10" fill="#7a4e28"/>
  <rect x="280" y="418" width="340" height="14" rx="4" fill="#101e30" opacity="0.9"/>
  <rect x="50" y="80" width="160" height="90" rx="10" fill="#0d1f38" stroke="#007dff" stroke-width="1" opacity="0.85"/>
  <text x="130" y="106" text-anchor="middle" font-family="Arial, sans-serif" font-size="10" fill="#007dff" opacity="0.8">THREAT ANALYSIS</text>
  <rect x="65" y="115" width="70" height="6" rx="2" fill="#ef4444" opacity="0.7"/>
  <rect x="65" y="128" width="110" height="6" rx="2" fill="#f59e0b" opacity="0.6"/>
  <rect x="65" y="141" width="85" height="6" rx="2" fill="#4ade80" opacity="0.6"/>
  <rect x="690" y="60" width="160" height="90" rx="10" fill="#0d1f38" stroke="#4ade80" stroke-width="1" opacity="0.85"/>
  <text x="770" y="86" text-anchor="middle" font-family="Arial, sans-serif" font-size="10" fill="#4ade80" opacity="0.8">SYSTEM STATUS</text>
  <text x="705" y="122" font-family="Arial, sans-serif" font-size="9" fill="#e2e8f0" opacity="0.6">Firewall</text>
  <circle cx="778" cy="118" r="5" fill="#4ade80" opacity="0.8"/>
  <text x="705" y="138" font-family="Arial, sans-serif" font-size="9" fill="#e2e8f0" opacity="0.6">IDS/IPS</text>
  <circle cx="778" cy="134" r="5" fill="#4ade80" opacity="0.8"/>
  <rect x="40" y="460" width="145" height="60" rx="10" fill="#07111e" stroke="#007dff" stroke-width="1" opacity="0.9"/>
  <text x="112" y="484" text-anchor="middle" font-family="Arial, sans-serif" font-size="9" fill="#007dff">CYVANT</text>
  <text x="112" y="500" text-anchor="middle" font-family="Arial, sans-serif" font-size="11" font-weight="700" fill="#ffffff">Cybersecurity</text>
  <text x="112" y="514" text-anchor="middle" font-family="Arial, sans-serif" font-size="9" fill="#007dff">Training - Africa</text>
</svg>